<!DOCTYPE svg PUBLIC "-//W3C//DTD SVG 1.1//EN" "http://www.w3.org/Graphics/SVG/1.1/DTD/svg11.dtd">
<!-- Uploaded to: SVG Repo, www.svgrepo.com, Transformed by: SVG Repo Mixer Tools -->
<svg width="229px" height="229px" viewBox="-1.7 -1.7 20.40 20.40" version="1.1" xmlns="http://www.w3.org/2000/svg" xmlns:xlink="http://www.w3.org/1999/xlink" class="si-glyph si-glyph-teeth" fill="#4361ee" stroke="#4361ee">
<g id="SVGRepo_bgCarrier" stroke-width="0" transform="translate(0,0), scale(1)">
<path transform="translate(-1.7, -1.7), scale(0.6375)" d="M16,28.491678575519472C18.19187510339558,28.524287699629976,20.47198914650555,28.10477863014584,22.24224353581667,26.81188295725287C23.95272988999344,25.562638544014494,24.53481861078227,23.37274264509863,25.552441627489117,21.51510474504903C26.546696420110838,19.700124782177244,27.66135022749005,18.007233463202493,28.165045256726444,16C28.776668840929286,13.562669365713317,30.33065673694352,10.600760550463203,28.78932158645039,8.616081739310179C27.173430909810886,6.535402539825169,23.427959275206938,8.400887227195899,21.187342940596867,7.01525847060249C18.83179868986777,5.5585566690392465,18.659916790028944,1.478613949495278,16.000000000000004,0.7069848119281232C13.473653424601139,-0.0258962452832745,10.836498897290847,1.8307140066637022,8.72545911255293,3.4001255812044757C6.7346703783512645,4.880138845051775,5.817746391948934,7.264769184919499,4.421232059981463,9.31499521294608C2.906055921203519,11.5394289231185,-0.20566043278105633,13.33124108139665,0.14303699601441622,15.999999999999996C0.5049841391047514,18.77016572655001,4.160047571687206,19.685742804308738,6.045607971988835,21.7471709169913C7.463911879616188,23.297761153741533,8.1243805850443,25.449013833544182,9.864077453268687,26.627729602246042C11.66440563529672,27.84752556541328,13.825594958866152,28.459329358293093,16,28.491678575519472" fill="#4361ee" strokewidth="0"/>
</g>
<g id="SVGRepo_tracerCarrier" stroke-linecap="round" stroke-linejoin="round" stroke="#CCCCCC" stroke-width="0.10200000000000001"/>
<g id="SVGRepo_iconCarrier"> <title>1110</title> <defs> </defs> <g stroke-width="0.136" fill="none" fill-rule="evenodd"> <path d="M14.715,9.02 C14.715,12.045 14.151,15.887 12.434,15.887 C9.62,15.887 10.916,10.001 8.491,10.001 C6.066,10.001 6.886,15.918 4.569,15.918 C2.94,15.918 2.292,12.002 2.292,9.02 C2.292,7.213 -0.101,4.249 1.672,1.628 C3.846,-1.586 5.94,0.952 8.437,0.952 C10.972,0.952 12.949,-1.533 15.265,1.628 C17.101,4.137 14.715,7.244 14.715,9.02 L14.715,9.02 Z" fill="#ffffff" class="si-glyph-fill"> </path> </g> </g>
</svg>